# xmcd
#
# Track frame offsets:
#	150
#	40701
#	68823
#	99841
#	118765
#	141860
#	168936
#	195043
#	213585
#	227743
#	257385
#	289027
#
# Disc length: 4083 seconds
# Revision: 0
# Processed by: cddbd v1.5.2PL0 Copyright (c) Steve Scherf et al.
# Submitted via: dBpowerAMP V12.0
#
DISCID=9c0ff10c
DTITLE=Roby Lakatos and Ensemble - Fire Dance
DYEAR=2007
DGENRE=Gypsy
TTITLE0=Fire Dance - Gypsy Bolero - Cickom Paraphrase
TTITLE1=Papa Can You Hear Me
TTITLE2=Čiflico - Got A Match
TTITLE3=Konfetki Baranotchki
TTITLE4=Wherever My Roads
TTITLE5=Divertimento
TTITLE6=Que Reste-t-il De Nos Amours?
TTITLE7=Intro
TTITLE8=Sakura
TTITLE9=Django
TTITLE10=Memory Of Bihari - Hejre Kati
TTITLE11=Nocturne Of June 11
EXTD=
EXTT0=
EXTT1=
EXTT2=
EXTT3=
EXTT4=
EXTT5=
EXTT6=
EXTT7=
EXTT8=
EXTT9=
EXTT10=
EXTT11=
PLAYORDER=
